<svg width="1312" height="249" viewBox="0 0 1312 249" fill="none" xmlns="http://www.w3.org/2000/svg">
<rect width="1312" height="249" rx="20" fill="#F1F5F9"/>
<path d="M81.584 82V68.59H82.844L90.71 79.876H90.224V68.59H91.664V82H90.404L82.538 70.642H83.024V82H81.584ZM101.156 82.216C100.22 82.216 99.3439 82.048 98.5279 81.712C97.7239 81.364 97.0159 80.884 96.4039 80.272C95.7919 79.648 95.3119 78.916 94.9639 78.076C94.6159 77.224 94.4419 76.294 94.4419 75.286C94.4419 74.278 94.6159 73.354 94.9639 72.514C95.3119 71.662 95.7919 70.93 96.4039 70.318C97.0159 69.694 97.7239 69.214 98.5279 68.878C99.3439 68.542 100.22 68.374 101.156 68.374C102.092 68.374 102.962 68.548 103.766 68.896C104.582 69.232 105.296 69.712 105.908 70.336C106.52 70.948 107 71.674 107.348 72.514C107.696 73.354 107.87 74.278 107.87 75.286C107.87 76.294 107.696 77.224 107.348 78.076C107 78.916 106.52 79.648 105.908 80.272C105.296 80.884 104.582 81.364 103.766 81.712C102.962 82.048 102.092 82.216 101.156 82.216ZM101.156 80.866C101.936 80.866 102.644 80.722 103.28 80.434C103.928 80.146 104.486 79.744 104.954 79.228C105.422 78.712 105.782 78.118 106.034 77.446C106.298 76.774 106.43 76.054 106.43 75.286C106.43 74.53 106.298 73.816 106.034 73.144C105.782 72.472 105.422 71.878 104.954 71.362C104.486 70.846 103.928 70.444 103.28 70.156C102.644 69.868 101.936 69.724 101.156 69.724C100.376 69.724 99.6619 69.868 99.0139 70.156C98.3779 70.444 97.8259 70.846 97.3579 71.362C96.8899 71.878 96.5239 72.472 96.2599 73.144C96.0079 73.816 95.8819 74.53 95.8819 75.286C95.8819 76.054 96.0079 76.774 96.2599 77.446C96.5239 78.118 96.8899 78.712 97.3579 79.228C97.8259 79.744 98.3839 80.146 99.0319 80.434C99.6799 80.722 100.388 80.866 101.156 80.866ZM115.159 82.216C114.307 82.216 113.533 82.054 112.837 81.73C112.141 81.406 111.553 80.974 111.073 80.434C110.593 79.882 110.251 79.276 110.047 78.616L111.343 78.13C111.655 79.042 112.141 79.738 112.801 80.218C113.461 80.686 114.247 80.92 115.159 80.92C115.735 80.92 116.239 80.83 116.671 80.65C117.115 80.458 117.457 80.194 117.697 79.858C117.937 79.522 118.057 79.132 118.057 78.688C118.057 78.028 117.877 77.518 117.517 77.158C117.157 76.798 116.641 76.522 115.969 76.33L113.557 75.61C112.609 75.334 111.877 74.872 111.361 74.224C110.857 73.576 110.605 72.838 110.605 72.01C110.605 71.302 110.779 70.678 111.127 70.138C111.475 69.586 111.949 69.154 112.549 68.842C113.161 68.53 113.851 68.374 114.619 68.374C115.423 68.374 116.143 68.524 116.779 68.824C117.427 69.112 117.973 69.496 118.417 69.976C118.861 70.456 119.179 70.99 119.371 71.578L118.111 72.082C117.823 71.29 117.373 70.69 116.761 70.282C116.161 69.874 115.453 69.67 114.637 69.67C114.121 69.67 113.665 69.76 113.269 69.94C112.885 70.12 112.585 70.378 112.369 70.714C112.153 71.05 112.045 71.446 112.045 71.902C112.045 72.454 112.219 72.952 112.567 73.396C112.915 73.828 113.449 74.152 114.169 74.368L116.293 74.998C117.349 75.31 118.147 75.76 118.687 76.348C119.227 76.936 119.497 77.674 119.497 78.562C119.497 79.282 119.311 79.918 118.939 80.47C118.579 81.01 118.069 81.436 117.409 81.748C116.761 82.06 116.011 82.216 115.159 82.216ZM126.795 82.216C125.943 82.216 125.169 82.054 124.473 81.73C123.777 81.406 123.189 80.974 122.709 80.434C122.229 79.882 121.887 79.276 121.683 78.616L122.979 78.13C123.291 79.042 123.777 79.738 124.437 80.218C125.097 80.686 125.883 80.92 126.795 80.92C127.371 80.92 127.875 80.83 128.307 80.65C128.751 80.458 129.093 80.194 129.333 79.858C129.573 79.522 129.693 79.132 129.693 78.688C129.693 78.028 129.513 77.518 129.153 77.158C128.793 76.798 128.277 76.522 127.605 76.33L125.193 75.61C124.245 75.334 123.513 74.872 122.997 74.224C122.493 73.576 122.241 72.838 122.241 72.01C122.241 71.302 122.415 70.678 122.763 70.138C123.111 69.586 123.585 69.154 124.185 68.842C124.797 68.53 125.487 68.374 126.255 68.374C127.059 68.374 127.779 68.524 128.415 68.824C129.063 69.112 129.609 69.496 130.053 69.976C130.497 70.456 130.815 70.99 131.007 71.578L129.747 72.082C129.459 71.29 129.009 70.69 128.397 70.282C127.797 69.874 127.089 69.67 126.273 69.67C125.757 69.67 125.301 69.76 124.905 69.94C124.521 70.12 124.221 70.378 124.005 70.714C123.789 71.05 123.681 71.446 123.681 71.902C123.681 72.454 123.855 72.952 124.203 73.396C124.551 73.828 125.085 74.152 125.805 74.368L127.929 74.998C128.985 75.31 129.783 75.76 130.323 76.348C130.863 76.936 131.133 77.674 131.133 78.562C131.133 79.282 130.947 79.918 130.575 80.47C130.215 81.01 129.705 81.436 129.045 81.748C128.397 82.06 127.647 82.216 126.795 82.216ZM140.232 82.216C139.296 82.216 138.42 82.048 137.604 81.712C136.8 81.364 136.092 80.884 135.48 80.272C134.868 79.648 134.388 78.916 134.04 78.076C133.692 77.224 133.518 76.294 133.518 75.286C133.518 74.278 133.692 73.354 134.04 72.514C134.388 71.662 134.868 70.93 135.48 70.318C136.092 69.694 136.8 69.214 137.604 68.878C138.42 68.542 139.296 68.374 140.232 68.374C141.168 68.374 142.038 68.548 142.842 68.896C143.658 69.232 144.372 69.712 144.984 70.336C145.596 70.948 146.076 71.674 146.424 72.514C146.772 73.354 146.946 74.278 146.946 75.286C146.946 76.294 146.772 77.224 146.424 78.076C146.076 78.916 145.596 79.648 144.984 80.272C144.372 80.884 143.658 81.364 142.842 81.712C142.038 82.048 141.168 82.216 140.232 82.216ZM140.232 80.866C141.012 80.866 141.72 80.722 142.356 80.434C143.004 80.146 143.562 79.744 144.03 79.228C144.498 78.712 144.858 78.118 145.11 77.446C145.374 76.774 145.506 76.054 145.506 75.286C145.506 74.53 145.374 73.816 145.11 73.144C144.858 72.472 144.498 71.878 144.03 71.362C143.562 70.846 143.004 70.444 142.356 70.156C141.72 69.868 141.012 69.724 140.232 69.724C139.452 69.724 138.738 69.868 138.09 70.156C137.454 70.444 136.902 70.846 136.434 71.362C135.966 71.878 135.6 72.472 135.336 73.144C135.084 73.816 134.958 74.53 134.958 75.286C134.958 76.054 135.084 76.774 135.336 77.446C135.6 78.118 135.966 78.712 136.434 79.228C136.902 79.744 137.46 80.146 138.108 80.434C138.756 80.722 139.464 80.866 140.232 80.866ZM154.235 82.216C153.383 82.216 152.609 82.054 151.913 81.73C151.217 81.406 150.629 80.974 150.149 80.434C149.669 79.882 149.327 79.276 149.123 78.616L150.419 78.13C150.731 79.042 151.217 79.738 151.877 80.218C152.537 80.686 153.323 80.92 154.235 80.92C154.811 80.92 155.315 80.83 155.747 80.65C156.191 80.458 156.533 80.194 156.773 79.858C157.013 79.522 157.133 79.132 157.133 78.688C157.133 78.028 156.953 77.518 156.593 77.158C156.233 76.798 155.717 76.522 155.045 76.33L152.633 75.61C151.685 75.334 150.953 74.872 150.437 74.224C149.933 73.576 149.681 72.838 149.681 72.01C149.681 71.302 149.855 70.678 150.203 70.138C150.551 69.586 151.025 69.154 151.625 68.842C152.237 68.53 152.927 68.374 153.695 68.374C154.499 68.374 155.219 68.524 155.855 68.824C156.503 69.112 157.049 69.496 157.493 69.976C157.937 70.456 158.255 70.99 158.447 71.578L157.187 72.082C156.899 71.29 156.449 70.69 155.837 70.282C155.237 69.874 154.529 69.67 153.713 69.67C153.197 69.67 152.741 69.76 152.345 69.94C151.961 70.12 151.661 70.378 151.445 70.714C151.229 71.05 151.121 71.446 151.121 71.902C151.121 72.454 151.295 72.952 151.643 73.396C151.991 73.828 152.525 74.152 153.245 74.368L155.369 74.998C156.425 75.31 157.223 75.76 157.763 76.348C158.303 76.936 158.573 77.674 158.573 78.562C158.573 79.282 158.387 79.918 158.015 80.47C157.655 81.01 157.145 81.436 156.485 81.748C155.837 82.06 155.087 82.216 154.235 82.216ZM164.412 82V68.59H169.02C169.896 68.59 170.664 68.764 171.324 69.112C171.984 69.448 172.494 69.928 172.854 70.552C173.226 71.164 173.412 71.878 173.412 72.694C173.412 73.51 173.226 74.224 172.854 74.836C172.494 75.448 171.984 75.928 171.324 76.276C170.676 76.612 169.908 76.78 169.02 76.78H165.852V82H164.412ZM165.852 75.43H169.092C169.668 75.43 170.172 75.322 170.604 75.106C171.036 74.878 171.372 74.56 171.612 74.152C171.852 73.732 171.972 73.24 171.972 72.676C171.972 72.112 171.852 71.626 171.612 71.218C171.372 70.81 171.036 70.498 170.604 70.282C170.172 70.054 169.668 69.94 169.092 69.94H165.852V75.43ZM175.979 82V68.59H180.587C181.463 68.59 182.231 68.764 182.891 69.112C183.551 69.448 184.061 69.928 184.421 70.552C184.793 71.164 184.979 71.878 184.979 72.694C184.979 73.642 184.727 74.452 184.223 75.124C183.731 75.796 183.059 76.27 182.207 76.546L185.339 82H183.647L180.371 76.222L181.343 76.78H177.419V82H175.979ZM177.419 75.43H180.659C181.235 75.43 181.739 75.322 182.171 75.106C182.603 74.878 182.939 74.56 183.179 74.152C183.419 73.732 183.539 73.24 183.539 72.676C183.539 72.112 183.419 71.626 183.179 71.218C182.939 70.81 182.603 70.498 182.171 70.282C181.739 70.054 181.235 69.94 180.659 69.94H177.419V75.43ZM187.51 82V68.59H188.95V82H187.51ZM192.115 82V68.59H193.375L201.241 79.876H200.755V68.59H202.195V82H200.935L193.069 70.642H193.555V82H192.115ZM211.489 82.216C210.541 82.216 209.671 82.048 208.879 81.712C208.087 81.364 207.397 80.884 206.809 80.272C206.233 79.648 205.783 78.916 205.459 78.076C205.135 77.236 204.973 76.312 204.973 75.304C204.973 74.296 205.135 73.372 205.459 72.532C205.783 71.692 206.233 70.96 206.809 70.336C207.397 69.712 208.087 69.232 208.879 68.896C209.671 68.548 210.541 68.374 211.489 68.374C212.401 68.374 213.217 68.536 213.937 68.86C214.669 69.184 215.281 69.604 215.773 70.12C216.277 70.624 216.637 71.158 216.853 71.722L215.503 72.316C215.167 71.536 214.651 70.912 213.955 70.444C213.271 69.964 212.449 69.724 211.489 69.724C210.505 69.724 209.629 69.958 208.861 70.426C208.093 70.894 207.493 71.548 207.061 72.388C206.629 73.216 206.413 74.188 206.413 75.304C206.413 76.408 206.629 77.38 207.061 78.22C207.493 79.06 208.093 79.714 208.861 80.182C209.629 80.638 210.505 80.866 211.489 80.866C212.449 80.866 213.271 80.632 213.955 80.164C214.651 79.696 215.167 79.072 215.503 78.292L216.853 78.886C216.637 79.438 216.277 79.972 215.773 80.488C215.281 80.992 214.669 81.406 213.937 81.73C213.217 82.054 212.401 82.216 211.489 82.216ZM219.432 82V68.59H220.872V82H219.432ZM224.037 82V68.59H228.645C229.521 68.59 230.289 68.764 230.949 69.112C231.609 69.448 232.119 69.928 232.479 70.552C232.851 71.164 233.037 71.878 233.037 72.694C233.037 73.51 232.851 74.224 232.479 74.836C232.119 75.448 231.609 75.928 230.949 76.276C230.301 76.612 229.533 76.78 228.645 76.78H225.477V82H224.037ZM225.477 75.43H228.717C229.293 75.43 229.797 75.322 230.229 75.106C230.661 74.878 230.997 74.56 231.237 74.152C231.477 73.732 231.597 73.24 231.597 72.676C231.597 72.112 231.477 71.626 231.237 71.218C230.997 70.81 230.661 70.498 230.229 70.282C229.797 70.054 229.293 69.94 228.717 69.94H225.477V75.43ZM233.145 82L238.041 68.59H239.589L244.485 82H242.973L241.821 78.724H235.827L234.657 82H233.145ZM236.295 77.374H241.317L238.599 69.67H239.031L236.295 77.374ZM246.273 82V68.59H247.713V82H246.273ZM255.397 82.216C254.545 82.216 253.771 82.054 253.075 81.73C252.379 81.406 251.791 80.974 251.311 80.434C250.831 79.882 250.489 79.276 250.285 78.616L251.581 78.13C251.893 79.042 252.379 79.738 253.039 80.218C253.699 80.686 254.485 80.92 255.397 80.92C255.973 80.92 256.477 80.83 256.909 80.65C257.353 80.458 257.695 80.194 257.935 79.858C258.175 79.522 258.295 79.132 258.295 78.688C258.295 78.028 258.115 77.518 257.755 77.158C257.395 76.798 256.879 76.522 256.207 76.33L253.795 75.61C252.847 75.334 252.115 74.872 251.599 74.224C251.095 73.576 250.843 72.838 250.843 72.01C250.843 71.302 251.017 70.678 251.365 70.138C251.713 69.586 252.187 69.154 252.787 68.842C253.399 68.53 254.089 68.374 254.857 68.374C255.661 68.374 256.381 68.524 257.017 68.824C257.665 69.112 258.211 69.496 258.655 69.976C259.099 70.456 259.417 70.99 259.609 71.578L258.349 72.082C258.061 71.29 257.611 70.69 256.999 70.282C256.399 69.874 255.691 69.67 254.875 69.67C254.359 69.67 253.903 69.76 253.507 69.94C253.123 70.12 252.823 70.378 252.607 70.714C252.391 71.05 252.283 71.446 252.283 71.902C252.283 72.454 252.457 72.952 252.805 73.396C253.153 73.828 253.687 74.152 254.407 74.368L256.531 74.998C257.587 75.31 258.385 75.76 258.925 76.348C259.465 76.936 259.735 77.674 259.735 78.562C259.735 79.282 259.549 79.918 259.177 80.47C258.817 81.01 258.307 81.436 257.647 81.748C256.999 82.06 256.249 82.216 255.397 82.216ZM265.574 82V68.59H270.182C271.058 68.59 271.826 68.764 272.486 69.112C273.146 69.448 273.656 69.928 274.016 70.552C274.388 71.164 274.574 71.878 274.574 72.694C274.574 73.51 274.388 74.224 274.016 74.836C273.656 75.448 273.146 75.928 272.486 76.276C271.838 76.612 271.07 76.78 270.182 76.78H267.014V82H265.574ZM267.014 75.43H270.254C270.83 75.43 271.334 75.322 271.766 75.106C272.198 74.878 272.534 74.56 272.774 74.152C273.014 73.732 273.134 73.24 273.134 72.676C273.134 72.112 273.014 71.626 272.774 71.218C272.534 70.81 272.198 70.498 271.766 70.282C271.334 70.054 270.83 69.94 270.254 69.94H267.014V75.43ZM277.141 82V68.59H281.749C282.625 68.59 283.393 68.764 284.053 69.112C284.713 69.448 285.223 69.928 285.583 70.552C285.955 71.164 286.141 71.878 286.141 72.694C286.141 73.642 285.889 74.452 285.385 75.124C284.893 75.796 284.221 76.27 283.369 76.546L286.501 82H284.809L281.533 76.222L282.505 76.78H278.581V82H277.141ZM278.581 75.43H281.821C282.397 75.43 282.901 75.322 283.333 75.106C283.765 74.878 284.101 74.56 284.341 74.152C284.581 73.732 284.701 73.24 284.701 72.676C284.701 72.112 284.581 71.626 284.341 71.218C284.101 70.81 283.765 70.498 283.333 70.282C282.901 70.054 282.397 69.94 281.821 69.94H278.581V75.43ZM294.99 82.216C294.054 82.216 293.178 82.048 292.362 81.712C291.558 81.364 290.85 80.884 290.238 80.272C289.626 79.648 289.146 78.916 288.798 78.076C288.45 77.224 288.276 76.294 288.276 75.286C288.276 74.278 288.45 73.354 288.798 72.514C289.146 71.662 289.626 70.93 290.238 70.318C290.85 69.694 291.558 69.214 292.362 68.878C293.178 68.542 294.054 68.374 294.99 68.374C295.926 68.374 296.796 68.548 297.6 68.896C298.416 69.232 299.13 69.712 299.742 70.336C300.354 70.948 300.834 71.674 301.182 72.514C301.53 73.354 301.704 74.278 301.704 75.286C301.704 76.294 301.53 77.224 301.182 78.076C300.834 78.916 300.354 79.648 299.742 80.272C299.13 80.884 298.416 81.364 297.6 81.712C296.796 82.048 295.926 82.216 294.99 82.216ZM294.99 80.866C295.77 80.866 296.478 80.722 297.114 80.434C297.762 80.146 298.32 79.744 298.788 79.228C299.256 78.712 299.616 78.118 299.868 77.446C300.132 76.774 300.264 76.054 300.264 75.286C300.264 74.53 300.132 73.816 299.868 73.144C299.616 72.472 299.256 71.878 298.788 71.362C298.32 70.846 297.762 70.444 297.114 70.156C296.478 69.868 295.77 69.724 294.99 69.724C294.21 69.724 293.496 69.868 292.848 70.156C292.212 70.444 291.66 70.846 291.192 71.362C290.724 71.878 290.358 72.472 290.094 73.144C289.842 73.816 289.716 74.53 289.716 75.286C289.716 76.054 289.842 76.774 290.094 77.446C290.358 78.118 290.724 78.712 291.192 79.228C291.66 79.744 292.218 80.146 292.866 80.434C293.514 80.722 294.222 80.866 294.99 80.866ZM304.475 82V68.59H308.885C310.217 68.59 311.375 68.866 312.359 69.418C313.343 69.958 314.105 70.732 314.645 71.74C315.185 72.736 315.455 73.918 315.455 75.286C315.455 76.642 315.185 77.824 314.645 78.832C314.105 79.84 313.343 80.62 312.359 81.172C311.375 81.724 310.217 82 308.885 82H304.475ZM305.915 80.65H308.885C309.917 80.65 310.811 80.434 311.567 80.002C312.323 79.558 312.905 78.934 313.313 78.13C313.733 77.326 313.943 76.378 313.943 75.286C313.943 74.194 313.733 73.252 313.313 72.46C312.893 71.656 312.305 71.038 311.549 70.606C310.793 70.162 309.905 69.94 308.885 69.94H305.915V80.65ZM322.55 82.216C321.602 82.216 320.768 82.018 320.048 81.622C319.328 81.226 318.77 80.686 318.374 80.002C317.978 79.306 317.78 78.514 317.78 77.626V68.59H319.22V77.626C319.22 78.274 319.358 78.844 319.634 79.336C319.922 79.816 320.312 80.194 320.804 80.47C321.308 80.734 321.89 80.866 322.55 80.866C323.21 80.866 323.786 80.734 324.278 80.47C324.782 80.194 325.172 79.816 325.448 79.336C325.736 78.844 325.88 78.274 325.88 77.626V68.59H327.32V77.626C327.32 78.514 327.122 79.306 326.726 80.002C326.33 80.686 325.772 81.226 325.052 81.622C324.344 82.018 323.51 82.216 322.55 82.216ZM332.76 82V69.94H329.052V68.59H337.872V69.94H334.2V82H332.76ZM345.422 82.216C344.486 82.216 343.61 82.048 342.794 81.712C341.99 81.364 341.282 80.884 340.67 80.272C340.058 79.648 339.578 78.916 339.23 78.076C338.882 77.224 338.708 76.294 338.708 75.286C338.708 74.278 338.882 73.354 339.23 72.514C339.578 71.662 340.058 70.93 340.67 70.318C341.282 69.694 341.99 69.214 342.794 68.878C343.61 68.542 344.486 68.374 345.422 68.374C346.358 68.374 347.228 68.548 348.032 68.896C348.848 69.232 349.562 69.712 350.174 70.336C350.786 70.948 351.266 71.674 351.614 72.514C351.962 73.354 352.136 74.278 352.136 75.286C352.136 76.294 351.962 77.224 351.614 78.076C351.266 78.916 350.786 79.648 350.174 80.272C349.562 80.884 348.848 81.364 348.032 81.712C347.228 82.048 346.358 82.216 345.422 82.216ZM345.422 80.866C346.202 80.866 346.91 80.722 347.546 80.434C348.194 80.146 348.752 79.744 349.22 79.228C349.688 78.712 350.048 78.118 350.3 77.446C350.564 76.774 350.696 76.054 350.696 75.286C350.696 74.53 350.564 73.816 350.3 73.144C350.048 72.472 349.688 71.878 349.22 71.362C348.752 70.846 348.194 70.444 347.546 70.156C346.91 69.868 346.202 69.724 345.422 69.724C344.642 69.724 343.928 69.868 343.28 70.156C342.644 70.444 342.092 70.846 341.624 71.362C341.156 71.878 340.79 72.472 340.526 73.144C340.274 73.816 340.148 74.53 340.148 75.286C340.148 76.054 340.274 76.774 340.526 77.446C340.79 78.118 341.156 78.712 341.624 79.228C342.092 79.744 342.65 80.146 343.298 80.434C343.946 80.722 344.654 80.866 345.422 80.866ZM359.424 82.216C358.572 82.216 357.798 82.054 357.102 81.73C356.406 81.406 355.818 80.974 355.338 80.434C354.858 79.882 354.516 79.276 354.312 78.616L355.608 78.13C355.92 79.042 356.406 79.738 357.066 80.218C357.726 80.686 358.512 80.92 359.424 80.92C360 80.92 360.504 80.83 360.936 80.65C361.38 80.458 361.722 80.194 361.962 79.858C362.202 79.522 362.322 79.132 362.322 78.688C362.322 78.028 362.142 77.518 361.782 77.158C361.422 76.798 360.906 76.522 360.234 76.33L357.822 75.61C356.874 75.334 356.142 74.872 355.626 74.224C355.122 73.576 354.87 72.838 354.87 72.01C354.87 71.302 355.044 70.678 355.392 70.138C355.74 69.586 356.214 69.154 356.814 68.842C357.426 68.53 358.116 68.374 358.884 68.374C359.688 68.374 360.408 68.524 361.044 68.824C361.692 69.112 362.238 69.496 362.682 69.976C363.126 70.456 363.444 70.99 363.636 71.578L362.376 72.082C362.088 71.29 361.638 70.69 361.026 70.282C360.426 69.874 359.718 69.67 358.902 69.67C358.386 69.67 357.93 69.76 357.534 69.94C357.15 70.12 356.85 70.378 356.634 70.714C356.418 71.05 356.31 71.446 356.31 71.902C356.31 72.454 356.484 72.952 356.832 73.396C357.18 73.828 357.714 74.152 358.434 74.368L360.558 74.998C361.614 75.31 362.412 75.76 362.952 76.348C363.492 76.936 363.762 77.674 363.762 78.562C363.762 79.282 363.576 79.918 363.204 80.47C362.844 81.01 362.334 81.436 361.674 81.748C361.026 82.06 360.276 82.216 359.424 82.216Z" fill="black"/>
<path d="M104.409 157.859C98.5766 157.859 94.7174 153.461 94.7174 148.167C94.7174 142.872 98.5779 138.385 104.409 138.385C110.333 138.385 114.192 142.872 114.192 148.167C114.192 153.462 110.331 157.859 104.409 157.859ZM150.537 132.282V128.603C150.546 127.759 150.22 126.946 149.632 126.341C149.044 125.736 148.24 125.388 147.396 125.372H139.141C138.297 125.387 137.493 125.735 136.905 126.341C136.316 126.946 135.991 127.759 135.999 128.603V167.64C135.991 168.484 136.316 169.298 136.904 169.903C137.493 170.508 138.297 170.856 139.141 170.871H147.396C148.24 170.856 149.044 170.508 149.632 169.903C150.221 169.298 150.546 168.484 150.537 167.64V152.923C150.537 145.744 151.794 138.923 162.383 139.641C162.715 139.661 163.048 139.614 163.361 139.502C163.674 139.389 163.961 139.214 164.204 138.988C164.448 138.761 164.643 138.487 164.777 138.183C164.911 137.879 164.982 137.55 164.986 137.218V126.897C164.98 126.545 164.897 126.198 164.743 125.881C164.589 125.564 164.367 125.284 164.093 125.062C163.82 124.84 163.501 124.68 163.159 124.594C162.817 124.508 162.46 124.498 162.114 124.564C159.76 124.994 157.519 125.9 155.528 127.227C153.537 128.554 151.839 130.274 150.537 132.282ZM179.345 120.256C180.351 120.263 181.348 120.071 182.279 119.69C183.21 119.31 184.057 118.749 184.771 118.04C185.484 117.331 186.051 116.488 186.437 115.559C186.824 114.63 187.023 113.634 187.023 112.628C187.023 111.623 186.824 110.627 186.437 109.698C186.051 108.769 185.484 107.926 184.771 107.217C184.057 106.508 183.21 105.947 182.279 105.567C181.348 105.186 180.351 104.994 179.345 105C178.336 104.989 177.335 105.178 176.399 105.556C175.464 105.934 174.612 106.494 173.895 107.204C173.177 107.913 172.608 108.758 172.219 109.689C171.83 110.62 171.63 111.619 171.63 112.628C171.63 113.637 171.83 114.636 172.219 115.568C172.608 116.499 173.177 117.343 173.895 118.053C174.612 118.762 175.464 119.322 176.399 119.701C177.335 120.079 178.336 120.268 179.345 120.256ZM175.217 170.871H183.384C183.808 170.873 184.229 170.791 184.622 170.629C185.015 170.467 185.372 170.229 185.672 169.929C185.973 169.629 186.21 169.272 186.372 168.879C186.534 168.486 186.616 168.065 186.614 167.64V128.603C186.616 128.178 186.534 127.757 186.372 127.364C186.21 126.972 185.972 126.615 185.672 126.314C185.372 126.014 185.015 125.776 184.622 125.614C184.229 125.453 183.808 125.37 183.384 125.372H175.217C174.792 125.37 174.372 125.453 173.979 125.614C173.586 125.776 173.229 126.014 172.929 126.314C172.628 126.615 172.39 126.972 172.229 127.364C172.067 127.757 171.985 128.178 171.986 128.603V167.64C171.985 168.065 172.067 168.486 172.229 168.879C172.39 169.272 172.628 169.629 172.929 169.929C173.229 170.229 173.586 170.467 173.979 170.629C174.371 170.791 174.792 170.873 175.217 170.871ZM218.204 156.243C212.101 156.243 208.421 152.116 208.421 146.551C208.421 140.897 212.101 136.769 218.204 136.769C223.678 136.769 227.896 140.449 227.896 146.551C227.896 152.564 223.679 156.243 218.204 156.243ZM228.345 127.795V130.308C225.832 126.808 221.883 124.295 215.601 124.295C201.691 124.295 193.704 134.615 193.704 146.549C193.704 158.484 201.691 168.806 215.601 168.806C221.883 168.806 225.832 166.473 228.345 163.242V165.306C228.345 172.396 225.652 177.242 216.768 177.242C212.551 177.242 209.229 175.896 207.345 174.193C206.955 173.881 206.48 173.697 205.982 173.665C205.484 173.633 204.989 173.754 204.563 174.013L197.653 178.051C197.343 178.243 197.08 178.503 196.884 178.81C196.688 179.118 196.564 179.466 196.521 179.828C196.478 180.19 196.517 180.557 196.635 180.902C196.753 181.247 196.948 181.561 197.204 181.821C201.421 186.218 208.961 189 217.486 189C233.55 189 242.973 179.846 242.973 166.833V128.603C242.975 128.178 242.893 127.757 242.731 127.364C242.569 126.971 242.331 126.615 242.031 126.314C241.73 126.014 241.374 125.776 240.981 125.614C240.588 125.453 240.167 125.37 239.742 125.372H230.768C230.449 125.371 230.133 125.432 229.839 125.554C229.544 125.675 229.277 125.853 229.051 126.079C228.826 126.304 228.648 126.572 228.526 126.866C228.405 127.161 228.343 127.476 228.345 127.795ZM260.113 120.256C261.119 120.263 262.117 120.071 263.048 119.69C263.979 119.31 264.826 118.749 265.539 118.04C266.253 117.331 266.819 116.488 267.206 115.559C267.592 114.63 267.791 113.634 267.791 112.628C267.791 111.623 267.592 110.627 267.206 109.698C266.819 108.769 266.253 107.926 265.539 107.217C264.826 106.508 263.979 105.947 263.048 105.567C262.117 105.186 261.119 104.994 260.113 105C259.104 104.989 258.103 105.178 257.168 105.556C256.232 105.934 255.381 106.494 254.664 107.204C253.946 107.913 253.377 108.758 252.988 109.689C252.599 110.62 252.399 111.619 252.399 112.628C252.399 113.637 252.599 114.636 252.988 115.568C253.377 116.499 253.946 117.343 254.664 118.053C255.381 118.762 256.232 119.322 257.168 119.701C258.103 120.079 259.104 120.268 260.113 120.256ZM255.985 170.871H264.152C264.577 170.873 264.998 170.791 265.391 170.629C265.783 170.467 266.14 170.229 266.441 169.929C266.741 169.629 266.979 169.272 267.141 168.879C267.303 168.486 267.385 168.065 267.383 167.64V128.603C267.385 128.178 267.303 127.757 267.141 127.364C266.979 126.972 266.741 126.615 266.441 126.314C266.14 126.014 265.784 125.776 265.391 125.614C264.998 125.453 264.577 125.37 264.152 125.372H255.985C255.561 125.37 255.14 125.453 254.747 125.614C254.354 125.776 253.997 126.014 253.697 126.314C253.396 126.615 253.158 126.971 252.997 127.364C252.835 127.757 252.753 128.178 252.754 128.603V167.64C252.752 168.065 252.835 168.486 252.997 168.879C253.158 169.272 253.396 169.629 253.697 169.929C253.997 170.229 254.354 170.467 254.747 170.629C255.14 170.791 255.561 170.873 255.985 170.871ZM304.267 124.295C298.344 124.295 294.396 126.539 291.883 129.5V127.795C291.884 127.476 291.822 127.161 291.701 126.866C291.58 126.571 291.401 126.304 291.176 126.078C290.951 125.853 290.683 125.675 290.388 125.554C290.094 125.432 289.778 125.371 289.459 125.372H280.485C280.061 125.37 279.64 125.453 279.247 125.614C278.854 125.776 278.497 126.014 278.197 126.314C277.896 126.615 277.658 126.971 277.497 127.364C277.335 127.757 277.253 128.178 277.255 128.603V167.64C277.253 168.065 277.335 168.486 277.497 168.879C277.658 169.272 277.896 169.629 278.197 169.929C278.497 170.229 278.854 170.467 279.247 170.629C279.639 170.791 280.061 170.873 280.485 170.871H288.652C289.077 170.873 289.498 170.791 289.89 170.629C290.283 170.467 290.64 170.229 290.94 169.929C291.241 169.629 291.479 169.272 291.64 168.879C291.802 168.486 291.885 168.065 291.883 167.64V146.372C291.883 141.256 294.844 138.564 299.151 138.564C303.19 138.564 306.421 141.076 306.421 146.372V167.64C306.412 168.484 306.738 169.297 307.326 169.903C307.914 170.508 308.718 170.856 309.562 170.871H317.818C318.662 170.856 319.466 170.508 320.054 169.903C320.642 169.297 320.968 168.484 320.959 167.64V142.423C320.959 133.269 315.665 124.295 304.267 124.295ZM352.549 157.859C346.536 157.859 342.856 153.731 342.856 148.166C342.856 142.513 346.536 138.385 352.549 138.385C358.023 138.385 362.331 142.064 362.331 148.166C362.331 154.179 358.023 157.859 352.549 157.859ZM362.78 127.795V129.859C360.087 126.539 356.049 124.295 349.947 124.295C335.767 124.295 328.139 136.231 328.139 148.166C328.139 160.012 335.767 171.948 349.947 171.948C356.049 171.948 360.087 169.705 362.78 166.385V168.448C362.778 168.767 362.84 169.082 362.961 169.377C363.083 169.671 363.261 169.939 363.486 170.164C363.711 170.39 363.979 170.568 364.274 170.689C364.568 170.811 364.884 170.872 365.202 170.871H374.176C374.601 170.873 375.022 170.791 375.415 170.629C375.808 170.467 376.165 170.229 376.465 169.929C376.766 169.629 377.004 169.272 377.165 168.879C377.327 168.486 377.409 168.065 377.408 167.64V128.603C377.409 128.178 377.327 127.757 377.165 127.364C377.004 126.971 376.766 126.614 376.465 126.314C376.165 126.014 375.808 125.776 375.415 125.614C375.022 125.452 374.601 125.37 374.176 125.372H365.202C364.884 125.371 364.568 125.432 364.274 125.554C363.979 125.675 363.711 125.853 363.486 126.079C363.261 126.304 363.083 126.572 362.961 126.866C362.84 127.161 362.778 127.476 362.78 127.795ZM387.279 111.283V167.64C387.271 168.484 387.596 169.297 388.185 169.903C388.773 170.508 389.577 170.856 390.421 170.871H398.677C399.521 170.856 400.324 170.508 400.913 169.903C401.501 169.297 401.826 168.484 401.818 167.64V111.282C401.826 110.438 401.501 109.625 400.913 109.02C400.324 108.415 399.521 108.067 398.677 108.052H390.421C389.577 108.067 388.773 108.415 388.185 109.02C387.597 109.625 387.271 110.438 387.28 111.282M104.409 124.295C90.2302 124.295 80 134.616 80 148.167C80 161.628 90.2302 172.038 104.409 172.038C118.679 172.038 128.82 161.628 128.82 148.167C128.82 134.615 118.679 124.295 104.409 124.295Z" fill="#082742"/>
<path fill-rule="evenodd" clip-rule="evenodd" d="M418.298 150.905C420.272 150.905 422.202 151.491 423.844 152.588C425.486 153.685 426.766 155.244 427.521 157.068C428.277 158.892 428.475 160.899 428.089 162.836C427.704 164.773 426.754 166.552 425.357 167.948C423.961 169.344 422.182 170.295 420.246 170.68C418.309 171.065 416.302 170.868 414.478 170.112C412.653 169.356 411.094 168.077 409.997 166.435C408.9 164.793 408.315 162.863 408.315 160.889C408.315 158.241 409.366 155.702 411.239 153.829C413.111 151.957 415.65 150.905 418.298 150.905Z" fill="#F2B500"/>
<g clip-path="url(#clip0_100_70)">
<path d="M885 124.5C885 256.772 992.228 364 1124.5 364C1256.77 364 1364 256.772 1364 124.5C1364 -7.77219 1256.77 -115 1124.5 -115C992.228 -115 885 -7.77219 885 124.5Z" fill="#042D4D"/>
<path d="M1000 69.4174C1000 68.0811 1001.01 67 1002.25 67H1050.11C1069.34 67 1086.31 81.9095 1086.31 104.987C1086.31 128.14 1069.32 142.974 1050.11 142.974H1028.55V179.535C1028.55 183.033 1021.47 183.033 1014.31 183.033C1007.07 183.033 1000 183.033 1000 179.625V69.4174ZM1056.17 105.062C1056.17 99.3115 1051.59 94.6569 1045.85 94.6569H1028.53V115.482H1045.85C1051.59 115.482 1056.17 110.813 1056.17 105.077V105.062Z" stroke="#FAFDFF" stroke-width="2" stroke-miterlimit="10"/>
<path d="M1068.45 179.61V69.4174C1068.45 68.0811 1069.48 67 1070.75 67H1119.66C1139.31 67 1156.65 81.9095 1156.65 104.987C1156.65 119.401 1149.68 130.722 1139.47 136.728L1162.26 178.619C1162.52 179.114 1162.69 179.625 1162.69 180.03C1162.69 183.033 1155.89 183.033 1149.17 183.033C1141.43 183.033 1133.69 183.033 1132.41 180.526L1113.19 142.959H1097.63V179.61C1097.63 182.943 1090.31 183.018 1083 183.018C1075.69 183.018 1068.45 182.928 1068.45 179.61ZM1125.87 105.062C1125.87 99.3115 1121.19 94.6569 1115.32 94.6569H1097.63V115.482H1115.32C1121.19 115.482 1125.87 110.813 1125.87 105.077V105.062Z" stroke="#FAFDFF" stroke-width="2" stroke-miterlimit="10"/>
<path d="M1127.97 124.962C1127.97 91.8691 1155.07 65 1188.49 65C1221.89 65 1249 91.8691 1249 124.962C1249 158.146 1221.91 185 1188.49 185C1155.08 185 1127.97 158.131 1127.97 124.962ZM1217.67 124.962C1217.67 107.778 1205.13 94.4801 1188.47 94.4801C1171.81 94.4801 1159.18 107.793 1159.18 124.962C1159.18 142.055 1171.8 155.535 1188.47 155.535C1205.13 155.535 1217.67 142.055 1217.67 124.962Z" stroke="#FAFDFF" stroke-width="2" stroke-miterlimit="10"/>
</g>
<defs>
<clipPath id="clip0_100_70">
<rect x="885" width="427" height="249" rx="20" fill="white"/>
</clipPath>
</defs>
</svg>
