<svg width="109" height="24" viewBox="0 0 109 24" fill="none" xmlns="http://www.w3.org/2000/svg">
<path d="M22.3913 6.41818C22.3913 6.32057 22.3612 6.22517 22.3046 6.14419C22.2702 6.02317 22.1896 5.91915 22.079 5.85299L18.617 3.81697C18.539 3.77121 18.4498 3.74639 18.3586 3.7451C18.2674 3.7438 18.1774 3.76607 18.0981 3.80959L15.1252 5.44751L15.0971 2.37324C15.0964 2.28649 15.0718 2.20148 15.026 2.12684C14.9801 2.0522 14.9145 1.9906 14.836 1.94829C14.7574 1.90598 14.6686 1.88447 14.5786 1.88594C14.4886 1.88742 14.4006 1.91183 14.3236 1.95669L7.80836 5.75223C7.73252 5.79647 7.66995 5.85901 7.62681 5.93366C7.58367 6.00831 7.56146 6.09251 7.56236 6.17796C7.56326 6.2634 7.58724 6.34715 7.63193 6.42095C7.67663 6.49474 7.74051 6.55604 7.81726 6.5988L11.1839 8.47015C11.2613 8.51292 11.3489 8.53553 11.4381 8.53575C11.5273 8.53597 11.615 8.51379 11.6926 8.4714L18.344 4.80854L20.8145 6.2609L11.4436 11.4609L2.16842 6.16997L11.6412 0.918384C11.7586 0.85337 11.8443 0.746087 11.8796 0.620135C11.9149 0.494183 11.8968 0.359882 11.8294 0.246773C11.7619 0.133665 11.6506 0.0510152 11.5199 0.0170075C11.3893 -0.0170003 11.2499 0.000419766 11.1326 0.065434L0.901339 5.73746C0.89751 5.73991 0.894974 5.74245 0.89099 5.74484C0.856255 5.76422 0.82415 5.78768 0.795409 5.81468L0.795046 5.81558L0.794115 5.81592C0.766793 5.84261 0.742839 5.87231 0.722753 5.90441C0.716388 5.91439 0.711265 5.92282 0.706193 5.93269C0.692124 5.95819 0.680601 5.98491 0.67178 6.0125C0.667569 6.02249 0.66411 6.03276 0.66143 6.04323C0.651906 6.07985 0.646356 6.11733 0.64487 6.15506C0.64487 6.15506 0.643577 6.1575 0.643577 6.16005V6.16129L0.630846 10.0195C0.630715 10.1048 0.653528 10.1887 0.697061 10.263C0.740594 10.3373 0.803362 10.3995 0.879243 10.4435L3.77808 12.1133L0.879656 13.4686C0.796533 13.5077 0.725952 13.5677 0.675443 13.6423C0.624934 13.7169 0.596392 13.8034 0.592859 13.8924C0.589326 13.9815 0.610937 14.0698 0.655385 14.1479C0.699833 14.2261 0.765452 14.2911 0.845243 14.3361L11.1811 20.1566C11.259 20.2012 11.348 20.2245 11.4386 20.2242C11.53 20.2239 11.6198 20.2002 11.6986 20.1554L19.0043 16.0011C19.0802 15.9578 19.1432 15.8964 19.1872 15.8228C19.2312 15.7491 19.2547 15.6658 19.2555 15.5808L19.2771 11.8394C19.2777 11.7526 19.2544 11.6672 19.2097 11.5919C19.1649 11.5166 19.1003 11.454 19.0224 11.4106C18.9444 11.3672 18.8559 11.3444 18.7659 11.3446C18.6759 11.3448 18.5875 11.368 18.5097 11.4117L11.4424 15.383L1.65346 9.74439L1.66236 7.02647L11.1798 12.4562C11.2585 12.5011 11.3483 12.5249 11.4398 12.525C11.5292 12.5248 11.617 12.5024 11.6948 12.4599L21.3728 7.08912L21.3754 17.5051L11.4424 22.9409L1.26591 17.2728C1.20791 17.2405 1.14386 17.2194 1.07742 17.2109C1.01099 17.2024 0.943469 17.2067 0.87872 17.2233C0.81397 17.24 0.753258 17.2688 0.700051 17.308C0.646843 17.3473 0.602182 17.3963 0.568618 17.4522C0.535053 17.5081 0.513242 17.5699 0.504431 17.6339C0.495619 17.6979 0.499979 17.763 0.517261 17.8254C0.534544 17.8878 0.56441 17.9463 0.605156 17.9976C0.645902 18.0489 0.696728 18.092 0.754734 18.1243L11.1836 23.9337C11.2606 23.9767 11.3479 23.9996 11.4368 24C11.5258 24.0004 11.6133 23.9784 11.6907 23.9362L22.1362 18.2199C22.2146 18.177 22.2799 18.1148 22.3253 18.0397C22.3708 17.9646 22.3948 17.8792 22.3949 17.7923L22.3913 6.41818ZM11.4386 7.47614L9.07513 6.16264L14.0837 3.24465L14.1079 5.85837C14.1079 5.90463 14.1152 5.95062 14.1296 5.99474L11.4386 7.47614ZM4.78683 12.6946L11.1759 16.3746C11.2543 16.4196 11.3438 16.4436 11.435 16.444C11.5263 16.4444 11.616 16.4213 11.6948 16.377L18.2509 12.6933L18.2354 15.2945L11.437 19.1602L2.18503 13.9503L4.63003 12.8076C4.68982 12.7807 4.74321 12.7423 4.78683 12.6946Z" fill="white"/>
<path d="M33.9861 18.7071C32.9599 18.7045 31.9434 18.5165 30.9891 18.1529C30.0063 17.783 29.1849 17.2895 28.525 16.6723L29.7335 14.9668C30.2929 15.5001 30.9533 15.9251 31.6788 16.2188C32.4061 16.5272 33.1915 16.6878 33.9861 16.6906C34.7663 16.6906 35.4228 16.5284 35.9556 16.204C36.4885 15.8796 36.7549 15.461 36.7549 14.9483C36.7562 14.753 36.7108 14.56 36.6223 14.3843C36.5288 14.2046 36.392 14.0491 36.2233 13.9309C36.0532 13.8082 35.8752 13.6962 35.6903 13.5954C35.4705 13.4843 35.2394 13.3954 35.0007 13.33C34.7189 13.2477 34.4874 13.1834 34.3059 13.1371C34.1248 13.0916 33.8891 13.0373 33.597 12.9775C32.9964 12.8452 32.408 12.6657 31.838 12.4405C31.3223 12.2356 30.8336 11.9724 30.3821 11.6566C29.9503 11.3579 29.5957 10.9673 29.3458 10.5151C29.0952 10.0528 28.9677 9.53766 28.9748 9.01607C28.9748 7.90408 29.4376 7.00547 30.363 6.32025C31.2885 5.63586 32.4902 5.29345 33.9681 5.29301C34.9127 5.29301 35.7817 5.44006 36.575 5.73415C37.3679 6.02659 38.0181 6.41773 38.5254 6.90759L37.4317 8.60446C37.0506 8.22477 36.5416 7.91306 35.9046 7.66931C35.2772 7.42646 34.6074 7.30175 33.9313 7.30194C33.183 7.30194 32.5694 7.45471 32.0905 7.76024C31.6116 8.06577 31.3724 8.46019 31.3728 8.9435C31.3728 9.8294 32.3336 10.4589 34.2552 10.8321C34.4962 10.8812 34.7214 10.9332 34.9308 10.9881C35.1403 11.043 35.4195 11.1286 35.7684 11.2449C36.0903 11.3508 36.4049 11.4764 36.7102 11.6209C37.0205 11.7741 37.318 11.9503 37.6 12.1481C37.8928 12.3468 38.158 12.5809 38.389 12.8447C38.6143 13.1132 38.7926 13.4154 38.9169 13.7392C39.0577 14.0963 39.1286 14.4754 39.126 14.8574C39.126 15.989 38.6378 16.9139 37.6614 17.6319C36.681 18.347 35.4559 18.7054 33.9861 18.7071Z" fill="white"/>
<path d="M41.0917 18.4773V5.52154H43.4041V18.4773H41.0917Z" fill="white"/>
<path d="M54.7522 16.3774V18.4773H46.3042V5.52154H48.6153V16.3774H54.7522Z" fill="white"/>
<path d="M56.7216 18.4773V5.52154H59.0328V18.4773H56.7216Z" fill="white"/>
<path d="M68.2798 18.707C67.3224 18.7134 66.3732 18.5371 65.4868 18.1883C64.6512 17.8718 63.891 17.3949 63.2525 16.7866C62.6139 16.1782 62.1103 15.4512 61.7721 14.6495C61.4086 13.8089 61.2243 12.9063 61.2303 11.9955C61.2303 10.7422 61.5363 9.6036 62.1482 8.57965C62.7483 7.56733 63.6255 6.73339 64.6839 6.16889C65.7611 5.58526 66.9598 5.29323 68.28 5.2928C69.5165 5.2928 70.6516 5.55287 71.6851 6.07302C72.6925 6.5704 73.553 7.30549 74.1862 8.20979L72.199 9.39195C71.7741 8.79436 71.2021 8.30764 70.5342 7.97536C69.8383 7.62725 69.0644 7.44911 68.2804 7.4566C66.9483 7.4566 65.8367 7.88911 64.9456 8.75413C64.0546 9.61916 63.6093 10.6996 63.6097 11.9955C63.6097 13.2918 64.0567 14.3739 64.9507 15.2418C65.8456 16.1105 66.9555 16.5447 68.2804 16.5442C69.0644 16.5519 69.8384 16.3737 70.5342 16.0255C71.2026 15.694 71.7748 15.2071 72.199 14.6089L74.1862 15.791C73.5529 16.6953 72.6925 17.4304 71.6851 17.9278C70.6523 18.4465 69.5172 18.7062 68.2798 18.707Z" fill="white"/>
<path d="M85.4981 18.4773L84.4133 15.7176H78.2957L77.2019 18.4773H74.7098L80.0089 5.52154H82.7586L88.0577 18.4773H85.4981ZM79.1154 13.6545H83.5962L81.3513 7.96059L79.1154 13.6545Z" fill="white"/>
<path d="M97.4748 5.52155V7.6215H93.4223V18.4785H91.101V7.62145H87.0294V5.5215L97.4748 5.52155Z" fill="white"/>
<path d="M101.774 16.3774H108.5V18.4773H99.4631V5.52154H108.405V7.6215H101.774V10.9132H107.758V13.0132H101.774V16.3774Z" fill="white"/>
</svg>
